<svg width="20" height="20" viewBox="0 0 20 20" fill="none" xmlns="http://www.w3.org/2000/svg">
<path d="M16.9337 1.27344C15.1797 1.51562 13.4219 2.11719 11.5977 3.08984C9.64068 4.13672 8.11334 5.38281 6.961 6.88281L6.67193 7.26172H6.03912C4.87896 7.26172 4.10943 7.49609 3.32818 8.08594C2.39068 8.78906 1.65631 10.0664 1.32818 11.5508C1.19928 12.1289 1.22662 12.3281 1.44537 12.4414C1.55475 12.5 1.68365 12.4883 3.17584 12.3242C4.05865 12.2266 4.84771 12.1367 4.92584 12.125L5.06646 12.1055L5.086 12.5273C5.10162 12.793 5.13287 13.0078 5.17193 13.1055C5.26178 13.3125 6.63287 14.6992 6.86334 14.8086C6.98443 14.8672 7.14068 14.8945 7.45709 14.9102L7.88678 14.9336L7.86725 15.0352C7.85943 15.0898 7.7735 15.875 7.67584 16.7734C7.48443 18.5273 7.48443 18.5625 7.67193 18.6914C7.78521 18.7734 8.00396 18.7617 8.48053 18.6562C10.3516 18.2305 11.754 17.2422 12.3712 15.9102C12.6251 15.3555 12.7032 14.9609 12.7227 14.0938L12.7422 13.3281L13.2188 12.9609C13.793 12.5195 14.8243 11.5 15.2891 10.918C16.9102 8.875 18.1876 6.15234 18.6368 3.76953C18.7422 3.22656 18.7774 1.98047 18.7032 1.62109C18.6563 1.39844 18.6446 1.38281 18.4962 1.33203C18.3438 1.27734 17.2032 1.23438 16.9337 1.27344ZM13.3204 5.41797C13.6368 5.50391 13.8165 5.60938 14.0743 5.85547C14.4688 6.23047 14.6485 6.64453 14.6485 7.18359C14.6485 7.83203 14.336 8.39844 13.7852 8.75391C13.2462 9.09766 12.4649 9.11719 11.9141 8.79688C11.3243 8.45703 10.9766 7.85938 10.9766 7.1875C10.9766 6.67188 11.129 6.29297 11.4805 5.92578C11.9805 5.39844 12.6172 5.22266 13.3204 5.41797Z" fill="white"/>
<path d="M3.80859 13.2031C3.25 13.3828 2.77734 13.7812 2.53906 14.2773C2.21094 14.957 1.95312 16.2852 1.88672 17.6133L1.86328 18.1367L2.40625 18.1094C3.02344 18.0781 3.65234 18.0039 4.27734 17.8867C5.27344 17.7031 5.89453 17.4531 6.23047 17.1133C6.59766 16.7422 6.875 16.1562 6.875 15.7578C6.875 15.6055 6.86328 15.5859 6.76953 15.5625C6.70312 15.543 6.63281 15.5586 6.56641 15.5977C6.17578 15.8477 5.58594 16.0039 5.21094 15.957C4.75781 15.9023 4.35156 15.5977 4.14453 15.1602C3.95312 14.7461 4.02734 14.1289 4.34375 13.5625C4.41016 13.4375 4.45312 13.3086 4.44531 13.25C4.43359 13.1523 4.41797 13.1445 4.23828 13.1367C4.12891 13.1328 3.9375 13.1602 3.80859 13.2031Z" fill="white"/>
</svg>
