<svg width="20" height="20" viewBox="0 0 20 20" fill="none" xmlns="http://www.w3.org/2000/svg">
<path d="M8.96879 1.91797C7.76957 2.07422 6.45707 2.56641 5.48051 3.22656C3.54301 4.53516 2.26567 6.56641 1.93754 8.85547C1.86723 9.35938 1.85551 10.4727 1.9141 10.9766C2.20707 13.332 3.49613 15.4336 5.48051 16.7734C6.48051 17.4492 7.77738 17.9297 9.02348 18.082C9.44926 18.1367 10.5508 18.1367 10.9766 18.082C12.3985 17.9062 13.7657 17.3555 14.9141 16.4961C15.2891 16.2109 15.9454 15.582 16.2735 15.1914C17.2422 14.0273 17.8946 12.5117 18.086 10.9766C18.1368 10.5508 18.1368 9.44922 18.086 9.02344C17.793 6.66797 16.5039 4.56641 14.5196 3.22656C13.5196 2.55078 12.2227 2.07031 10.9766 1.91406C10.5899 1.86719 9.35551 1.87109 8.96879 1.91797ZM13.75 10V10.625H10H6.25004V10V9.375H10H13.75V10Z" fill="#E52020"/>
</svg>
